<svg width="14" height="16" viewBox="0 0 14 16" fill="none" xmlns="http://www.w3.org/2000/svg">
<path id="Combined Shape" fill-rule="evenodd" clip-rule="evenodd" d="M2.8 4.21875C2.8 1.89253 4.68412 0 7 0C9.31588 0 11.2 1.89253 11.2 4.21875C11.2 6.54497 9.31588 8.4375 7 8.4375C4.68412 8.4375 2.8 6.54497 2.8 4.21875ZM7.93333 9.375C9.55139 9.375 11.0757 10.0208 12.2256 11.1936C13.3698 12.3606 14 13.901 14 15.5312C14 15.7901 13.7911 16 13.5333 16H0.466667C0.208942 16 0 15.7901 0 15.5312C0 13.901 0.630155 12.3606 1.77439 11.1936C2.92426 10.0208 4.44864 9.375 6.06667 9.375H7.93333Z" fill="#62C476"/>
</svg>
